<svg id="Capa_1" enableBackground="new 0 0 512 512" height="512" viewBox="0 0 512 512" width="512" xmlns="http://www.w3.org/2000/svg"><g><path d="m366.529 283.814h-202.892c-9.668 0-17.534 7.866-17.534 17.534v123.825c0 9.668 7.866 17.534 17.534 17.534h202.892c9.668 0 17.534-7.866 17.534-17.534v-123.825c.001-9.668-7.865-17.534-17.534-17.534zm-200.294 143.864c2.952-28.166 22.168-41.464 30.728-46.036 2.212-1.182 3.69-3.39 3.937-5.887s-.767-4.952-2.706-6.546c-4.94-4.064-7.774-10.057-7.774-16.444 0-11.734 9.546-21.28 21.28-21.28s21.28 9.546 21.28 21.28c0 6.387-2.834 12.381-7.774 16.444-1.938 1.594-2.952 4.049-2.705 6.546.247 2.496 1.725 4.704 3.937 5.887 8.629 4.609 27.79 17.919 30.734 46.036zm106.759 0c2.944-28.117 22.105-41.427 30.734-46.036 2.212-1.182 3.69-3.39 3.937-5.887.246-2.497-.767-4.952-2.706-6.546-4.94-4.064-7.774-10.057-7.774-16.444 0-11.734 9.546-21.28 21.28-21.28s21.28 9.546 21.28 21.28c0 6.387-2.834 12.381-7.774 16.444-1.938 1.594-2.952 4.049-2.705 6.546.248 2.496 1.725 4.704 3.937 5.887 8.56 4.572 27.776 17.871 30.728 46.036zm96.04-31.687c-6.307-10.616-14.355-17.934-20.716-22.544 4.17-6.006 6.457-13.185 6.457-20.682 0-20.021-16.289-36.309-36.309-36.309-20.021 0-36.309 16.289-36.309 36.309 0 7.497 2.286 14.674 6.455 20.68-7.361 5.329-16.964 14.262-23.528 27.722-6.565-13.459-16.168-22.392-23.528-27.722 4.169-6.006 6.455-13.183 6.455-20.68 0-20.021-16.289-36.309-36.309-36.309-20.021 0-36.309 16.289-36.309 36.309 0 7.497 2.287 14.676 6.457 20.682-6.361 4.609-14.409 11.928-20.716 22.544v-94.643c0-1.382 1.123-2.505 2.505-2.505h202.892c1.382 0 2.505 1.123 2.505 2.505v94.643z"/><path d="m384.064 86.828c0-9.668-7.866-17.534-17.534-17.534h-202.893c-9.668 0-17.534 7.866-17.534 17.534v46.883c0 4.151 3.364 7.515 7.515 7.515s7.515-3.364 7.515-7.515v-46.883c0-1.382 1.123-2.505 2.505-2.505h202.892c1.382 0 2.505 1.123 2.505 2.505v123.825c0 1.382-1.123 2.505-2.505 2.505h-40.883c-2.522-29.003-19.303-45.919-30.709-54.177 4.169-6.006 6.455-13.183 6.455-20.68 0-20.021-16.289-36.309-36.309-36.309-20.021 0-36.309 16.289-36.309 36.309 0 7.497 2.286 14.674 6.455 20.68-11.407 8.257-28.187 25.173-30.709 54.177h-40.883c-1.382 0-2.505-1.123-2.505-2.505v-46.883c0-4.151-3.364-7.515-7.515-7.515s-7.515 3.364-7.515 7.515v46.883c0 9.668 7.866 17.534 17.534 17.534h202.892c9.668 0 17.534-7.866 17.534-17.534v-123.825zm-164.447 126.33c2.963-28.08 22.105-41.374 30.728-45.98 2.212-1.182 3.69-3.39 3.937-5.886.247-2.497-.767-4.952-2.706-6.546-4.94-4.064-7.774-10.057-7.774-16.444 0-11.734 9.546-21.28 21.28-21.28s21.28 9.546 21.28 21.28c0 6.387-2.834 12.381-7.774 16.444-1.938 1.594-2.952 4.049-2.705 6.546.247 2.496 1.725 4.704 3.937 5.886 8.623 4.606 27.765 17.901 30.728 45.98z"/><path d="m467.537 385.596c4.151 0 7.515-3.364 7.515-7.515v-350.527c0-15.193-12.361-27.554-27.554-27.554h-372.528c-4.151 0-7.515 3.364-7.515 7.515v35.079c-17.378 3.498-30.507 18.88-30.507 37.272 0 18.393 13.129 33.774 30.507 37.273v13.522c-17.378 3.498-30.507 18.88-30.507 37.273s13.129 33.773 30.507 37.271v13.522c-17.378 3.498-30.507 18.88-30.507 37.273s13.129 33.774 30.507 37.272v13.523c-17.378 3.498-30.507 18.88-30.507 37.272s13.129 33.774 30.507 37.272v13.522c-17.378 3.498-30.507 18.88-30.507 37.273s13.129 33.774 30.507 37.272v35.078c0 4.151 3.364 7.515 7.515 7.515h372.528c15.193 0 27.554-12.361 27.554-27.554v-76.305c0-4.151-3.364-7.515-7.515-7.515s-7.515 3.364-7.515 7.515v76.306c0 6.906-5.618 12.524-12.525 12.524h-12.342c1.928-3.761 3.023-8.016 3.023-12.524v-386.597c0-4.151-3.364-7.515-7.515-7.515s-7.515 3.364-7.515 7.515v386.597c0 6.906-5.618 12.524-12.524 12.524h-328.14v-86.56c8.998 3.121 15.478 11.678 15.478 21.725 0 4.151 3.364 7.515 7.515 7.515s7.515-3.364 7.515-7.515c0-18.393-13.129-33.774-30.507-37.273v-72.52c8.998 3.121 15.478 11.678 15.478 21.725 0 4.151 3.364 7.515 7.515 7.515s7.515-3.364 7.515-7.515c0-18.393-13.129-33.774-30.507-37.272v-72.52c8.998 3.121 15.478 11.678 15.478 21.725 0 4.151 3.364 7.515 7.515 7.515s7.515-3.364 7.515-7.515c0-18.393-13.129-33.774-30.507-37.273v-72.519c8.998 3.121 15.478 11.678 15.478 21.725 0 4.151 3.364 7.515 7.515 7.515s7.515-3.364 7.515-7.515c0-18.393-13.129-33.774-30.507-37.273v-72.52c8.998 3.121 15.478 11.678 15.478 21.724 0 4.151 3.364 7.515 7.515 7.515s7.515-3.364 7.515-7.515c0-18.393-13.129-33.774-30.507-37.272v-27.563h328.141c6.906 0 12.524 5.618 12.524 12.524v40.237c0 4.151 3.364 7.515 7.515 7.515s7.515-3.364 7.515-7.515v-40.236c0-4.509-1.095-8.764-3.023-12.524h12.342c6.906 0 12.525 5.618 12.525 12.524v350.527c-.006 4.151 3.359 7.515 7.509 7.515zm-415.559-305.73c0-10.047 6.48-18.603 15.478-21.724v43.449c-8.999-3.122-15.478-11.678-15.478-21.725zm0 88.068c0-10.047 6.48-18.603 15.478-21.725v43.448c-8.999-3.121-15.478-11.677-15.478-21.723zm0 88.066c0-10.047 6.48-18.603 15.478-21.725v43.449c-8.999-3.121-15.478-11.677-15.478-21.724zm0 88.068c0-10.047 6.48-18.603 15.478-21.725v43.449c-8.999-3.121-15.478-11.678-15.478-21.724zm0 88.067c0-10.047 6.48-18.603 15.478-21.725v43.449c-8.999-3.121-15.478-11.677-15.478-21.724z"/></g></svg>