<svg width="67" height="67" viewBox="0 0 67 67" fill="none" xmlns="http://www.w3.org/2000/svg">
<path d="M12.5625 4.1875H54.4375C55.5956 4.1875 56.5312 5.12314 56.5312 6.28125V60.7188C56.5312 61.8769 55.5956 62.8125 54.4375 62.8125H12.5625C11.4044 62.8125 10.4688 61.8769 10.4688 60.7188V6.28125C10.4688 5.12314 11.4044 4.1875 12.5625 4.1875ZM29.5742 8.89844H23.293V22.6321L26.3354 20.4141L29.5742 22.7303V8.89844ZM15.1797 58.1016H51.8203V8.89844H33.5V28.3245C33.5 28.5404 33.4346 28.7563 33.3037 28.933C33.2243 29.0453 33.1234 29.1407 33.0068 29.2138C32.8903 29.2868 32.7604 29.336 32.6247 29.3585C32.489 29.381 32.3502 29.3764 32.2163 29.3449C32.0824 29.3134 31.9561 29.2557 31.8446 29.1751L26.3616 25.2559L21.0356 29.1424C20.859 29.2732 20.6431 29.3452 20.4206 29.3452C19.8448 29.3452 19.3737 28.8741 19.3737 28.2983V8.89844H15.1862V58.1016H15.1797Z" fill="black"/>
</svg>
