<svg width="47" height="59" viewBox="0 0 47 59" fill="none" xmlns="http://www.w3.org/2000/svg">
<path d="M2.5625 0.1875H44.4375C45.5956 0.1875 46.5312 1.12314 46.5312 2.28125V56.7188C46.5312 57.8769 45.5956 58.8125 44.4375 58.8125H2.5625C1.4044 58.8125 0.46875 57.8769 0.46875 56.7188V2.28125C0.46875 1.12314 1.4044 0.1875 2.5625 0.1875ZM19.5742 4.89844H13.293V18.6321L16.3354 16.4141L19.5742 18.7303V4.89844ZM5.17969 54.1016H41.8203V4.89844H23.5V24.3245C23.5 24.5404 23.4346 24.7563 23.3037 24.933C23.2243 25.0453 23.1234 25.1407 23.0068 25.2138C22.8903 25.2868 22.7604 25.336 22.6247 25.3585C22.489 25.381 22.3502 25.3764 22.2163 25.3449C22.0824 25.3134 21.9561 25.2557 21.8446 25.1751L16.3616 21.2559L11.0356 25.1424C10.859 25.2732 10.6431 25.3452 10.4206 25.3452C9.84482 25.3452 9.37373 24.8741 9.37373 24.2983V4.89844H5.18623V54.1016H5.17969Z" fill="black"/>
</svg>
